<svg width="15" height="16" viewBox="0 0 15 16" fill="none" xmlns="http://www.w3.org/2000/svg">
<path d="M0.234616 6.02928L5.20397 1.03072C5.30231 0.932988 5.42258 0.870047 5.5506 0.849316C5.67862 0.828586 5.80905 0.850931 5.92654 0.913718C6.04402 0.976505 6.14365 1.07712 6.2137 1.2037C6.28374 1.33028 6.32127 1.47756 6.32187 1.62817V4.26052C10.8552 4.32117 14.4503 5.37961 14.4503 10.3866C14.4052 11.3819 14.1708 12.353 13.764 13.2298C13.3572 14.1065 12.7883 14.8669 12.0983 15.4559C12.0152 15.53 11.9143 15.5721 11.8096 15.5762C11.705 15.5803 11.6019 15.5463 11.5146 15.4788C11.4274 15.4114 11.3603 15.3139 11.3229 15.2C11.2854 15.0861 11.2794 14.9614 11.3057 14.8433C12.5855 10.0749 10.6971 8.80762 6.32187 8.73407V11.6253C6.32136 11.7759 6.2839 11.9233 6.21389 12.05C6.14388 12.1766 6.04425 12.2773 5.92675 12.3402C5.80925 12.403 5.67878 12.4254 5.55072 12.4047C5.42266 12.384 5.30234 12.321 5.20397 12.2233L0.234616 7.22417C0.160989 7.15005 0.101925 7.05833 0.0614399 6.95524C0.0209551 6.85214 0 6.7401 0 6.62672C0 6.51335 0.0209551 6.4013 0.0614399 6.29821C0.101925 6.19511 0.160989 6.10339 0.234616 6.02928Z" fill="#191917" fill-opacity="0.48"/>
</svg>
